<svg xmlns="http://www.w3.org/2000/svg" xmlns:xlink="http://www.w3.org/1999/xlink" viewBox="0 0 500 70"><defs><style>.cls-1{fill:#5ebfc1;}.cls-2{fill:none;}.cls-3{clip-path:url(#clip-path);}</style><clipPath id="clip-path"><polygon id="SVGID" class="cls-1" points="45.87 51.73 47.53 46.58 60.1 46.53 63.13 44.54 64.88 38.94 63.18 36.95 48 36.95 43.59 31.93 46.32 23.44 53.96 18.42 76.08 18.42 74.43 23.57 55.48 23.62 52.42 25.56 51.05 29.99 52.78 32.03 67.93 31.98 72.33 37 69.21 46.71 61.58 51.73 45.87 51.73"/></clipPath></defs><title>資產 6</title><g id="圖層_2" data-name="圖層 2"><g id="圖層_1-2" data-name="圖層 1"><rect class="cls-2" width="500" height="70"/><path class="cls-1" d="M462.35,39.64a10.36,10.36,0,0,0,5.19-4,11.6,11.6,0,0,0,1.81-6.59,11.22,11.22,0,0,0-3.44-8.64q-3.45-3.18-9.24-3.18h-15V56.84h7.51V40.79h5.62l7.51,16.05H471Zm-2-6.51a5.65,5.65,0,0,1-4.1,1.4h-7.11V23.81h7.11a5.64,5.64,0,0,1,4.07,1.43,5.08,5.08,0,0,1,1.49,3.85A5.32,5.32,0,0,1,460.37,33.13Z"/><polygon class="cls-1" points="402.37 23.81 419.98 23.81 419.98 17.27 394.86 17.27 394.86 56.84 419.98 56.84 419.98 50.31 402.37 50.31 402.37 40.16 417.4 40.16 417.4 33.62 402.37 33.62 402.37 23.81"/><polygon class="cls-1" points="343.65 17.27 356.27 56.84 362.29 56.84 374.97 17.27 367.11 17.27 359.31 44.63 351.51 17.27 343.65 17.27"/><path class="cls-1" d="M316,17.27h-6.13L295.78,56.84h7.91l2.41-7.68h13.59l2.41,7.68h8Zm-7.85,25.64,4.76-15.2,4.82,15.2Z"/><polygon class="cls-1" points="219.18 17.27 211.67 17.27 211.67 42.05 197.1 17.27 189.59 17.27 189.59 56.84 197.1 56.84 197.1 32.13 211.67 56.84 219.18 56.84 219.18 17.27"/><rect class="cls-1" x="158.68" y="17.27" width="7.51" height="39.57"/><path class="cls-1" d="M251.07,53.73Q255,57.23,262,57.22q7.13,0,11.3-3.46t4.19-10q0-10.2-11.2-12.21l-4.6-.82a9.1,9.1,0,0,1-4.53-1.89,4.61,4.61,0,0,1-1.45-3.59,5.17,5.17,0,0,1,1.64-4.06,8.65,8.65,0,0,1,9.63,0,6.37,6.37,0,0,1,1.82,4.6h7.94q-.51-6.18-4.25-9.57t-10.17-3.4q-6.61,0-10.61,3.52a12.13,12.13,0,0,0-4,9.57Q247.67,36,259.45,38l4.09.69A8.22,8.22,0,0,1,268,40.51a5.25,5.25,0,0,1,1.38,3.93q0,5.73-7,5.73a8.7,8.7,0,0,1-5.51-1.48c-1.23-1-2-2.67-2.29-5.07h-7.81Q247.17,50.24,251.07,53.73Z"/><polygon class="cls-1" points="117.76 20.58 137.08 20.58 137.08 13.41 109.51 13.41 109.51 56.84 117.76 56.84 117.76 38.9 134.31 38.9 134.31 31.73 117.76 31.73 117.76 20.58"/><polygon class="cls-1" points="29.05 42.91 37.45 11.73 45.5 6.22 75.68 6.22 73.94 11.88 47.12 11.93 43.88 14.06 35.75 42.91 29.05 42.91"/><polygon id="SVGID-2" data-name="SVGID" class="cls-1" points="45.87 51.73 47.53 46.58 60.1 46.53 63.13 44.54 64.88 38.94 63.18 36.95 48 36.95 43.59 31.93 46.32 23.44 53.96 18.42 76.08 18.42 74.43 23.57 55.48 23.62 52.42 25.56 51.05 29.99 52.78 32.03 67.93 31.98 72.33 37 69.21 46.71 61.58 51.73 45.87 51.73"/><g class="cls-3"><rect class="cls-1" x="43.59" y="18.42" width="32.49" height="33.31"/></g><polygon class="cls-1" points="90.91 16.68 79.94 58.17 71.88 63.78 30.73 63.78 32.48 58.02 70.27 57.97 73.5 55.8 84.21 16.68 90.91 16.68"/><rect class="cls-1" x="487.21" y="31.73" width="6.39" height="6.53"/><rect class="cls-1" x="6.39" y="31.73" width="6.39" height="6.53"/></g></g></svg>