<?xml version="1.0" encoding="utf-8"?>
<!-- Generator: Adobe Illustrator 23.0.2, SVG Export Plug-In . SVG Version: 6.00 Build 0)  -->
<svg version="1.1" id="圖層_1" xmlns="http://www.w3.org/2000/svg" xmlns:xlink="http://www.w3.org/1999/xlink" x="0px" y="0px"
	 viewBox="0 0 90 90" style="enable-background:new 0 0 90 90;" xml:space="preserve">
<style type="text/css">
	.st0{fill:none;stroke:#0B1D37;stroke-width:1.3;stroke-linecap:round;stroke-linejoin:round;}
	.st1{fill:none;}
</style>
<title>資產 2</title>
<g>
	<g id="圖層_1-2">
		<path class="st0" d="M31.2,53.3c0,0-12.6,1.6-12.6-10.2c0-10.9,9.5-10.9,9.5-10.9"/>
		<path class="st0" d="M23.9,33.3c0,0-1.3-5.5,2.7-8.2s8,0,8,0"/>
		<path class="st0" d="M58.8,53.3c0,0,12.6,1.6,12.6-10.2c0-10.9-9.5-10.9-9.5-10.9"/>
		<path class="st0" d="M66.1,33.3c0,0,1.3-5.5-2.7-8.2s-8,0-8,0"/>
		<path class="st0" d="M34.6,28.6c0,0-0.7-10.4,10.2-10.4s10.6,10.4,10.6,10.4"/>
		<path class="st0" d="M43,22c0,0,5.3-2.9,9.3,4.7"/>
		<path class="st0" d="M62.3,36.2c0,0,8.9,2.2,4,11.8"/>
		<path class="st0" d="M45.3,57.8C63.4,58.9,59,42.8,59,42.8s-6.2-1.7-8.6,2.1c0-3.2-2-6.1-5.1-7.1l-0.6-0.3L44,37.8
			c-2.7,1.5-4.6,4.1-5.1,7.1c-2.4-3.8-8.6-2.1-8.6-2.1s-4.4,16,13.7,14.9l0.6-1.4L45.3,57.8z"/>
		<polyline class="st0" points="41.1,57.8 44.9,64 44.9,71.7 		"/>
		<line class="st0" x1="44.9" y1="64" x2="48.1" y2="57.8"/>
		<rect class="st1" width="90" height="90"/>
	</g>
</g>
</svg>
