<svg xmlns="http://www.w3.org/2000/svg" viewBox="0 0 90 90"><defs><style>.cls-1,.cls-2{fill:none;}.cls-1{stroke:#979797;stroke-linecap:round;stroke-linejoin:round;stroke-width:1.3px;}</style></defs><title>資產 2</title><g id="圖層_2" data-name="圖層 2"><g id="圖層_1-2" data-name="圖層 1"><path class="cls-1" d="M31.25,53.31S18.62,54.9,18.62,43.12c0-10.88,9.53-10.87,9.53-10.87"/><path class="cls-1" d="M23.92,33.32s-1.31-5.5,2.68-8.16,8,0,8,0"/><path class="cls-1" d="M58.75,53.31S71.38,54.9,71.38,43.12c0-10.88-9.53-10.87-9.53-10.87"/><path class="cls-1" d="M66.08,33.32s1.31-5.5-2.68-8.16-8,0-8,0"/><path class="cls-1" d="M34.58,28.65s-.66-10.36,10.2-10.36S55.42,28.65,55.42,28.65"/><path class="cls-1" d="M43,22.05s5.33-2.88,9.32,4.66"/><path class="cls-1" d="M62.29,36.24s8.88,2.22,4,11.75"/><path class="cls-1" d="M45.26,57.75C63.44,58.86,59,42.82,59,42.82s-6.21-1.7-8.64,2.07a7.45,7.45,0,0,0-5.1-7.1l-.63-.26-.63.26a10.11,10.11,0,0,0-5.1,7.1c-2.44-3.77-8.65-2.07-8.65-2.07S25.81,58.86,44,57.75l.63-1.39Z"/><polyline class="cls-1" points="41.14 57.8 44.91 63.95 44.91 71.71"/><line class="cls-1" x1="44.91" y1="63.95" x2="48.12" y2="57.8"/><rect class="cls-2" width="90" height="90"/></g></g></svg>