<?xml version="1.0" encoding="utf-8"?>
<!-- Generator: Adobe Illustrator 23.0.2, SVG Export Plug-In . SVG Version: 6.00 Build 0)  -->
<svg version="1.1" id="圖層_1" xmlns="http://www.w3.org/2000/svg" xmlns:xlink="http://www.w3.org/1999/xlink" x="0px" y="0px"
	 viewBox="0 0 90 90" style="enable-background:new 0 0 90 90;" xml:space="preserve">
<style type="text/css">
	.st0{fill:none;stroke:#0B1D37;stroke-width:1.3;stroke-linecap:round;stroke-linejoin:round;}
	.st1{fill:none;}
</style>
<title>資產 1</title>
<g>
	<g id="圖層_1-2">
		<circle class="st0" cx="45" cy="30.8" r="3.8"/>
		<circle class="st0" cx="67.5" cy="30.8" r="3.8"/>
		<circle class="st0" cx="22.5" cy="30.8" r="3.8"/>
		<circle class="st0" cx="45" cy="59.2" r="3.8"/>
		<circle class="st0" cx="56.3" cy="52" r="3.8"/>
		<circle class="st0" cx="56.3" cy="38.4" r="3.8"/>
		<circle class="st0" cx="33.7" cy="52" r="3.8"/>
		<circle class="st0" cx="33.7" cy="38.4" r="3.8"/>
		<circle class="st0" cx="67.5" cy="59.2" r="3.8"/>
		<circle class="st0" cx="22.5" cy="59.2" r="3.8"/>
		<line class="st0" x1="22.5" y1="21.3" x2="22.5" y2="27"/>
		<line class="st0" x1="45" y1="21.3" x2="45" y2="27"/>
		<line class="st0" x1="67.5" y1="21.3" x2="67.5" y2="27"/>
		<line class="st0" x1="22.5" y1="63" x2="22.5" y2="68.7"/>
		<line class="st0" x1="45" y1="63" x2="45" y2="68.7"/>
		<line class="st0" x1="56.3" y1="42.6" x2="56.3" y2="48.3"/>
		<line class="st0" x1="33.7" y1="42.6" x2="33.7" y2="48.3"/>
		<line class="st0" x1="41.8" y1="33.2" x2="36.9" y2="36"/>
		<line class="st0" x1="25.8" y1="33.2" x2="30.7" y2="36"/>
		<line class="st0" x1="64.3" y1="33.2" x2="59.3" y2="36"/>
		<line class="st0" x1="48.2" y1="33.2" x2="53.2" y2="36"/>
		<line class="st0" x1="41.8" y1="57.2" x2="36.9" y2="54.4"/>
		<line class="st0" x1="25.8" y1="57.2" x2="30.7" y2="54.4"/>
		<line class="st0" x1="64.3" y1="57.2" x2="59.3" y2="54.4"/>
		<line class="st0" x1="48.2" y1="57.2" x2="53.2" y2="54.4"/>
		<line class="st0" x1="67.5" y1="63" x2="67.5" y2="68.7"/>
		<rect class="st1" width="90" height="90"/>
	</g>
</g>
</svg>
