<svg xmlns="http://www.w3.org/2000/svg" viewBox="0 0 90 90"><defs><style>.cls-1,.cls-2{fill:none;}.cls-1{stroke:#979797;stroke-linecap:round;stroke-linejoin:round;stroke-width:1.3px;}</style></defs><title>資產 1</title><g id="圖層_2" data-name="圖層 2"><g id="圖層_1-2" data-name="圖層 1"><circle class="cls-1" cx="45" cy="30.76" r="3.78"/><circle class="cls-1" cx="67.51" cy="30.76" r="3.78"/><circle class="cls-1" cx="22.49" cy="30.76" r="3.78"/><circle class="cls-1" cx="45" cy="59.24" r="3.78"/><circle class="cls-1" cx="56.26" cy="52.04" r="3.78"/><circle class="cls-1" cx="56.26" cy="38.37" r="3.78"/><circle class="cls-1" cx="33.74" cy="52.04" r="3.78"/><circle class="cls-1" cx="33.74" cy="38.37" r="3.78"/><circle class="cls-1" cx="67.51" cy="59.24" r="3.78"/><circle class="cls-1" cx="22.49" cy="59.24" r="3.78"/><line class="cls-1" x1="22.49" y1="21.28" x2="22.49" y2="26.98"/><line class="cls-1" x1="45" y1="21.28" x2="45" y2="26.98"/><line class="cls-1" x1="67.51" y1="21.28" x2="67.51" y2="26.98"/><line class="cls-1" x1="22.49" y1="63.02" x2="22.49" y2="68.72"/><line class="cls-1" x1="45" y1="63.02" x2="45" y2="68.72"/><line class="cls-1" x1="56.26" y1="42.56" x2="56.26" y2="48.26"/><line class="cls-1" x1="33.74" y1="42.56" x2="33.74" y2="48.26"/><line class="cls-1" x1="41.84" y1="33.16" x2="36.91" y2="36.01"/><line class="cls-1" x1="25.8" y1="33.16" x2="30.73" y2="36.01"/><line class="cls-1" x1="64.27" y1="33.16" x2="59.34" y2="36.01"/><line class="cls-1" x1="48.24" y1="33.16" x2="53.17" y2="36.01"/><line class="cls-1" x1="41.84" y1="57.25" x2="36.91" y2="54.4"/><line class="cls-1" x1="25.8" y1="57.25" x2="30.73" y2="54.4"/><line class="cls-1" x1="64.27" y1="57.25" x2="59.34" y2="54.4"/><line class="cls-1" x1="48.24" y1="57.25" x2="53.17" y2="54.4"/><line class="cls-1" x1="67.51" y1="63.02" x2="67.51" y2="68.72"/><rect class="cls-2" width="90" height="90"/></g></g></svg>